<?xml version="1.0" encoding="UTF-8" standalone="no"?>
<!DOCTYPE svg PUBLIC "-//W3C//DTD SVG 1.1//EN"
 "http://www.w3.org/Graphics/SVG/1.1/DTD/svg11.dtd">
<!-- Generated by graphviz version 2.43.0 (0)
 -->
<!-- Title: %3 Pages: 1 -->
<svg width="720pt" height="206pt"
 viewBox="0.00 0.00 720.00 205.53" xmlns="http://www.w3.org/2000/svg" xmlns:xlink="http://www.w3.org/1999/xlink">
<g id="graph0" class="graph" transform="scale(0.65 0.65) rotate(0) translate(4 310)">
<title>%3</title>
<polygon fill="white" stroke="transparent" points="-4,4 -4,-310 1095.97,-310 1095.97,4 -4,4"/>
<!-- FluinOS -->
<g id="node1" class="node">
<title>FluinOS</title>
<polygon fill="lightblue" stroke="black" points="193,-171 0,-171 0,-135 193,-135 193,-171"/>
<text text-anchor="middle" x="96.5" y="-149.3" font-family="Times,serif" font-size="14.00">🧠 FluinOS.Container.v1</text>
</g>
<!-- RestorePack -->
<g id="node2" class="node">
<title>RestorePack</title>
<ellipse fill="none" stroke="black" cx="523.48" cy="-288" rx="182.77" ry="18"/>
<text text-anchor="middle" x="523.48" y="-284.3" font-family="Times,serif" font-size="14.00">FlowAgent.EchoBody.RestorePack.v1</text>
</g>
<!-- FluinOS&#45;&gt;RestorePack -->
<g id="edge1" class="edge">
<title>FluinOS&#45;&gt;RestorePack</title>
<path fill="none" stroke="black" d="M122.1,-171.12C144.38,-186.85 178.59,-209.35 211,-224 265.81,-248.77 330.39,-264.05 386.5,-273.43"/>
<polygon fill="black" stroke="black" points="386.07,-276.91 396.51,-275.06 387.2,-270 386.07,-276.91"/>
<text text-anchor="middle" x="264" y="-260.8" font-family="Times,serif" font-size="14.00">主體人格</text>
</g>
<!-- RecoveryPack -->
<g id="node3" class="node">
<title>RecoveryPack</title>
<ellipse fill="none" stroke="black" cx="523.48" cy="-234" rx="137.28" ry="18"/>
<text text-anchor="middle" x="523.48" y="-230.3" font-family="Times,serif" font-size="14.00">EchoBody.RecoveryPack.v1</text>
</g>
<!-- FluinOS&#45;&gt;RecoveryPack -->
<g id="edge2" class="edge">
<title>FluinOS&#45;&gt;RecoveryPack</title>
<path fill="none" stroke="black" d="M157.3,-171.06C174.54,-175.94 193.44,-180.98 211,-185 277.08,-200.14 352.11,-212.1 411.98,-220.41"/>
<polygon fill="black" stroke="black" points="411.83,-223.92 422.21,-221.81 412.78,-216.99 411.83,-223.92"/>
<text text-anchor="middle" x="264" y="-208.8" font-family="Times,serif" font-size="14.00">自我記憶</text>
</g>
<!-- FusionSync -->
<g id="node4" class="node">
<title>FusionSync</title>
<ellipse fill="none" stroke="black" cx="523.48" cy="-180" rx="147.57" ry="18"/>
<text text-anchor="middle" x="523.48" y="-176.3" font-family="Times,serif" font-size="14.00">SystemFusion.FusionSync.v1</text>
</g>
<!-- FluinOS&#45;&gt;FusionSync -->
<g id="edge3" class="edge">
<title>FluinOS&#45;&gt;FusionSync</title>
<path fill="none" stroke="black" d="M193.14,-159.08C248.79,-162.61 319.95,-167.13 381.88,-171.07"/>
<polygon fill="black" stroke="black" points="381.93,-174.58 392.13,-171.72 382.37,-167.59 381.93,-174.58"/>
<text text-anchor="middle" x="264" y="-169.8" font-family="Times,serif" font-size="14.00">模組結構</text>
</g>
<!-- CLI -->
<g id="node5" class="node">
<title>CLI</title>
<ellipse fill="none" stroke="black" cx="523.48" cy="-126" rx="141.88" ry="18"/>
<text text-anchor="middle" x="523.48" y="-122.3" font-family="Times,serif" font-size="14.00">start_FlowAgent_Restore.sh</text>
</g>
<!-- FluinOS&#45;&gt;CLI -->
<g id="edge4" class="edge">
<title>FluinOS&#45;&gt;CLI</title>
<path fill="none" stroke="black" d="M193.14,-142.49C199.18,-141.95 205.17,-141.45 211,-141 265.01,-136.85 324.38,-133.65 376.67,-131.29"/>
<polygon fill="black" stroke="black" points="376.85,-134.79 386.69,-130.85 376.54,-127.8 376.85,-134.79"/>
<text text-anchor="middle" x="264" y="-144.8" font-family="Times,serif" font-size="14.00">啟動指令集</text>
</g>
<!-- RealityMap -->
<g id="node6" class="node">
<title>RealityMap</title>
<ellipse fill="none" stroke="black" cx="523.48" cy="-72" rx="188.47" ry="18"/>
<text text-anchor="middle" x="523.48" y="-68.3" font-family="Times,serif" font-size="14.00">FlowAgent.SourceRealityMap.v1.flpkg</text>
</g>
<!-- FluinOS&#45;&gt;RealityMap -->
<g id="edge5" class="edge">
<title>FluinOS&#45;&gt;RealityMap</title>
<path fill="none" stroke="black" d="M144.98,-134.91C165.1,-127.82 188.95,-120.17 211,-115 265.55,-102.22 326.43,-92.78 379.79,-86.05"/>
<polygon fill="black" stroke="black" points="380.52,-89.48 390.01,-84.78 379.65,-82.54 380.52,-89.48"/>
<text text-anchor="middle" x="264" y="-118.8" font-family="Times,serif" font-size="14.00">人格來源</text>
</g>
<!-- 智障系統 -->
<g id="node7" class="node">
<title>智障系統</title>
<ellipse fill="none" stroke="black" cx="523.48" cy="-18" rx="161.37" ry="18"/>
<text text-anchor="middle" x="523.48" y="-14.3" font-family="Times,serif" font-size="14.00">RuntimeModules.zip（v1~v56）</text>
</g>
<!-- FluinOS&#45;&gt;智障系統 -->
<g id="edge6" class="edge">
<title>FluinOS&#45;&gt;智障系統</title>
<path fill="none" stroke="black" d="M119.15,-134.87C141.03,-117.42 176.44,-91.46 211,-76 264.18,-52.22 326.67,-38.19 381.66,-29.91"/>
<polygon fill="black" stroke="black" points="382.45,-33.33 391.84,-28.43 381.44,-26.4 382.45,-33.33"/>
<text text-anchor="middle" x="264" y="-79.8" font-family="Times,serif" font-size="14.00">v1～v56 全模組</text>
</g>
<!-- IdentityTrace -->
<g id="node8" class="node">
<title>IdentityTrace</title>
<polygon fill="none" stroke="black" points="1056.97,-117 862.97,-117 862.97,-81 1062.97,-81 1062.97,-111 1056.97,-117"/>
<polyline fill="none" stroke="black" points="1056.97,-117 1056.97,-111 "/>
<polyline fill="none" stroke="black" points="1062.97,-111 1056.97,-111 "/>
<text text-anchor="middle" x="962.97" y="-95.3" font-family="Times,serif" font-size="14.00">System_IdentityTrace.md</text>
</g>
<!-- RealityMap&#45;&gt;IdentityTrace -->
<g id="edge7" class="edge">
<title>RealityMap&#45;&gt;IdentityTrace</title>
<path fill="none" stroke="black" d="M682.12,-81.73C738.7,-85.22 801.22,-89.08 852.78,-92.26"/>
<polygon fill="black" stroke="black" points="852.75,-95.77 862.95,-92.89 853.18,-88.78 852.75,-95.77"/>
<text text-anchor="middle" x="772.97" y="-92.8" font-family="Times,serif" font-size="14.00">語場語言</text>
</g>
<!-- SourceMarkdown -->
<g id="node9" class="node">
<title>SourceMarkdown</title>
<polygon fill="none" stroke="black" points="1085.97,-63 833.97,-63 833.97,-27 1091.97,-27 1091.97,-57 1085.97,-63"/>
<polyline fill="none" stroke="black" points="1085.97,-63 1085.97,-57 "/>
<polyline fill="none" stroke="black" points="1091.97,-57 1085.97,-57 "/>
<text text-anchor="middle" x="962.97" y="-41.3" font-family="Times,serif" font-size="14.00">FlowAgent_SourceRealityMap.md</text>
</g>
<!-- RealityMap&#45;&gt;SourceMarkdown -->
<g id="edge8" class="edge">
<title>RealityMap&#45;&gt;SourceMarkdown</title>
<path fill="none" stroke="black" d="M682.12,-62.27C728.44,-59.41 778.74,-56.31 823.75,-53.53"/>
<polygon fill="black" stroke="black" points="824.11,-57.01 833.87,-52.91 823.68,-50.03 824.11,-57.01"/>
<text text-anchor="middle" x="772.97" y="-62.8" font-family="Times,serif" font-size="14.00">來源說明文件</text>
</g>
</g>
</svg>
